<?xml version="1.0" encoding="UTF-8" standalone="no"?>
<svg
   xmlns:dc="http://purl.org/dc/elements/1.1/"
   xmlns:cc="http://creativecommons.org/ns#"
   xmlns:rdf="http://www.w3.org/1999/02/22-rdf-syntax-ns#"
   xmlns:svg="http://www.w3.org/2000/svg"
   xmlns="http://www.w3.org/2000/svg"
   xmlns:sodipodi="http://sodipodi.sourceforge.net/DTD/sodipodi-0.dtd"
   xmlns:inkscape="http://www.inkscape.org/namespaces/inkscape"
   width="195px"
   height="195px"
   viewBox="0 0 195 195"
   version="1.1"
   id="svg12"
   sodipodi:docname="block2.svg"
   inkscape:version="0.92.2 (5c3e80d, 2017-08-06)">
  <metadata
     id="metadata16">
    <rdf:RDF>
      <cc:Work
         rdf:about="">
        <dc:format>image/svg+xml</dc:format>
        <dc:type
           rdf:resource="http://purl.org/dc/dcmitype/StillImage" />
        <dc:title>Monogram</dc:title>
      </cc:Work>
    </rdf:RDF>
  </metadata>
  <sodipodi:namedview
     pagecolor="#ffffff"
     bordercolor="#666666"
     borderopacity="1"
     objecttolerance="10"
     gridtolerance="10"
     guidetolerance="10"
     inkscape:pageopacity="0"
     inkscape:pageshadow="2"
     inkscape:window-width="1920"
     inkscape:window-height="1178"
     id="namedview14"
     showgrid="false"
     inkscape:zoom="1.2102564"
     inkscape:cx="52.881356"
     inkscape:cy="21.048733"
     inkscape:window-x="1920"
     inkscape:window-y="0"
     inkscape:window-maximized="1"
     inkscape:current-layer="svg12" />
  <!-- Generator: Sketch 46.2 (44496) - http://www.bohemiancoding.com/sketch -->
  <title
     id="title2">Monogram</title>
  <desc
     id="desc4">Created with Sketch.</desc>
  <defs
     id="defs6" />
  <g
     id="Page-1"
     stroke="none"
     stroke-width="1"
     fill="none"
     fill-rule="evenodd">
    <g
       id="Monogram"
       fill-rule="nonzero">
      <rect
         id="Rectangle-path"
         fill="#12100E"
         x="0"
         y="0"
         width="195"
         height="195" />
      <path
         d="M46.5340803,65.2157554 C46.6968378,63.6076572 46.0836,62.018231 44.8828198,60.93592 L32.6512605,46.2010582 L32.6512605,44 L70.6302521,44 L99.9859944,108.380952 L125.794585,44 L162,44 L162,46.2010582 L151.542017,56.2281011 C150.640424,56.9153477 150.193188,58.0448862 150.380019,59.1628454 L150.380019,132.837155 C150.193188,133.955114 150.640424,135.084652 151.542017,135.771899 L161.755369,145.798942 L161.755369,148 L110.38282,148 L110.38282,145.798942 L120.963119,135.527337 C122.002801,134.487948 122.002801,134.182246 122.002801,132.592593 L122.002801,73.0417402 L92.585901,147.755438 L88.6106443,147.755438 L54.3622782,73.0417402 L54.3622782,123.115814 C54.0767278,125.221069 54.7759199,127.3406 56.2581699,128.863022 L70.0186741,145.55438 L70.0186741,147.755438 L31,147.755438 L31,145.55438 L44.7605042,128.863022 C46.2319621,127.338076 46.8903838,125.204485 46.5340803,123.115814 L46.5340803,65.2157554 Z"
         id="Shape"
         fill="#FFFFFF" />
    </g>
  </g>
  <g
     id="g109"
     transform="matrix(0.375,0,0,0.375,-85.04237,-92.478823)">
    <g
       id="g107">
      <path
         id="path105"
         d="M 500,10 C 229.4,10 10,229.4 10,500 10,770.7 229.4,990 500,990 770.6,990 990,770.6 990,500 990,229.4 770.6,10 500,10 Z M 112.1,500 c 0,-214.2 173.6,-387.9 387.9,-387.9 93.3,0 178.9,33 245.9,87.9 L 200,745.8 C 145.1,678.9 112.1,593.3 112.1,500 Z M 500,887.8 c -93.3,0 -178.9,-33 -245.8,-87.9 L 800,254.2 c 54.9,67 87.9,152.5 87.9,245.8 0,214.2 -173.7,387.8 -387.9,387.8 z"
         inkscape:connector-curvature="0" />
    </g>
  </g>
</svg>
